<svg width="4000" height="1137" viewBox="0 0 4000 1137" fill="none" xmlns="http://www.w3.org/2000/svg">
<g clip-path="url(#clip0_80_1004)">
<path d="M477.441 0V460.32L316.942 460.961V0.640718H0V720.665L477.441 720.024V875.754L0 876.395V1136.1L794.383 1136.74V0H477.441Z" fill="#9747FF"/>
<path d="M1891.9 4.27145V0.0711908L963.568 0V715.824V720.06L1891.9 720.131V4.27145ZM1280.51 486.198V233.862H1574.99V486.198H1280.51Z" fill="#9747FF"/>
<path d="M4000 4.27145V0.0711908L3071.67 0V715.824V720.06L4000 720.131V4.27145ZM3388.61 486.198V233.862H3683.09V486.198H3388.61Z" fill="#9747FF"/>
<path d="M2898.78 875.754V6.72754V0.0711908H2377.88V0H2060.94V875.754H970.402V1135.46H2378.02L2377.88 316.977H2581.84V1135.46H3999.43V875.754H2898.78Z" fill="#9747FF"/>
</g>
<defs>
<clipPath id="clip0_80_1004">
<rect width="4000" height="1136.74" fill="white"/>
</clipPath>
</defs>
</svg>
